# AST/ASF file generated using VICON BodyLanguage
# -----------------------------------------------
:version 1.10
:name VICON
:units
  mass 1.0
  length 0.45
  angle deg
:documentation
   .ast/.asf automatically generated from VICON data using
   VICON BodyBuilder and BodyLanguage model FoxedUp or BRILLIANT.MOD
:root
   order TX TY TZ RX RY RZ
   axis XYZ
   position 0 0 0  
   orientation 0 0 0 
:bonedata
  begin
     id 1 
     name lhipjoint
     direction 0.612567 -0.751349 0.245431 
     length 2.42285 
     axis 0 0 0  XYZ
  end
  begin
     id 2 
     name lfemur
     direction 0.34202 -0.939693 0  
     length 7.11304  
     axis 0 0 20  XYZ
    dof rx ry rz
    limits (-160.0 20.0)
           (-70.0 70.0)
           (-60.0 70.0)
  end
  begin
     id 3 
     name ltibia
     direction 0.34202 -0.939693 0   
     length 7.84529   
     axis 0 0 20   XYZ
    dof rx
    limits (-10.0 170.0)
  end
  begin
     id 4 
     name lfoot
     direction 0.0779239 -0.214094 0.9737   
     length 1.97176   
     axis -90 7.62852e-016 20   XYZ
    dof rx rz
    limits (-45.0 90.0)
           (-70.0 20.0)
  end
  begin
     id 5 
     name ltoes
     direction 1.53565e-011 -4.21709e-011 1   
     length 0.993197   
     axis -90 7.62852e-016 20   XYZ
    dof rx
    limits (-90.0 20.0)
  end
  begin
     id 6 
     name rhipjoint
     direction -0.665722 -0.709315 0.231701   
     length 2.56642  
     axis 0 0 0  XYZ 
  end
  begin
     id 7 
     name rfemur
     direction -0.34202 -0.939693 0   
     length 7.32108   
     axis 0 0 -20   XYZ
    dof rx ry rz
    limits (-160.0 20.0)
           (-70.0 70.0)
           (-70.0 60.0)
  end
  begin
     id 8 
     name rtibia
     direction -0.34202 -0.939693 0   
     length 7.81254   
     axis 0 0 -20   XYZ
    dof rx
    limits (-10.0 170.0)
 end
 begin
     id 9 
     name rfoot
     direction -0.0832806 -0.228812 0.969902   
     length 2.08278  
     axis -90 -7.62852e-016 -20   XYZ
    dof rx rz
    limits (-45.0 90.0)
           (-20.0 70.0)
  end
  begin
     id 10 
     name rtoes
     direction -1.53589e-011 -4.22086e-011 1   
     length 1.04609   
     axis -90 -7.62852e-016 -20   XYZ
    dof rx
    limits (-90.0 20.0)
  end
  begin
     id 11 
     name lowerback
     direction -0.00506013 0.988403 -0.151766   
     length 2.01978   
     axis 0 0 0   XYZ
    dof rx ry rz
    limits (-20.0 45.0)
           (-30.0 30.0)
           (-30.0 30.0)
  end
  begin
     id 12 
     name upperback
     direction -0.00836389 0.99968 0.0238859   
     length 2.01276   
     axis 0 0 0   XYZ
    dof rx ry rz
    limits (-20.0 45.0)
           (-30.0 30.0)
           (-30.0 30.0)
  end
  begin
     id 13 
     name thorax
     direction -0.00684136 0.995386 0.0957043   
     length 2.07303   
     axis 0 0 0   XYZ
    dof rx ry rz
    limits (-20.0 45.0)
           (-30.0 30.0)
           (-30.0 30.0)
  end
  begin
     id 14 
     name lowerneck
     direction -0.0161045 0.999661 0.0204485   
     length 1.91243   
     axis 0 0 0   XYZ
    dof rx ry rz
    limits (-20.0 45.0)
           (-30.0 30.0)
           (-30.0 30.0)
  end
  begin
     id 15 
     name upperneck
     direction 0.0553583 0.990946 -0.122319   
     length 1.91574   
     axis 0 0 0   XYZ
    dof rx ry rz
    limits (-20.0 45.0)
           (-30.0 30.0)
           (-30.0 30.0)
  end
  begin
     id 16
     name head
     direction 0.0180273 0.998839 -0.0446756  
     length 1.92693  
     axis 0 0 0   XYZ
    dof rx ry rz
    limits (-20.0 45.0)
           (-30.0 30.0)
           (-30.0 30.0)
  end
  begin
     id 17 
     name lclavicle
     direction 0.945646 0.319323 -0.0615358  
     length 4.0076  
     axis 0 0 0   XYZ
    dof ry rz
    limits (-20.0 10.0)
           (0.0 20.0)
  end
  begin
     id 18 
     name lhumerus
     direction 1 -4.48967e-011 -2.79996e-027   
     length 5.64147   
     axis 180 -30 -90   XYZ
    dof rx ry rz
    limits (-60.0 90.0)
           (-90.0 90.0)
           (-90.0 90.0)
  end
  begin
     id 19
     name lradius
     direction 1 -4.48976e-011 -9.5122e-027   
     length 2.86444   
     axis 180 -30 -90   XYZ
    dof rx
    limits (-10.0 170.0)
  end
  begin
     id 20
     name lwrist
     direction 1 -4.48983e-011 -1.24047e-026   
     length 1.43222   
     axis 9.05591e-015 90 90   XYZ
    dof ry
    limits (-180.0 0.0)
 end
  begin
     id 21 
     name lhand
     direction 1 -4.4892e-011 -2.48094e-026   
     length 0.722123   
     axis 1.58305e-014 90 90   XYZ
    dof rx rz
    limits (-90.0 90.0)
           (-45.0 45.0)
  end
  begin
     id 22 
     name lfingers
     direction 1 -4.48895e-011 -4.96187e-026   
     length 0.582194   
     axis 3.1661e-014 90 90   XYZ
    dof rx
    limits (0.0 90.0)
  end
  begin
     id 23
     name lthumb
     direction 0.707107 -6.34961e-011 0.707107   
     length 0.835918   
     axis -90 45 2.85299e-015   XYZ
    dof rx rz
    limits (-45.0 45.0)
           (-45.0 45.0)
  end
  begin
     id 24 
     name rclavicle
     direction -0.932635 0.324218 -0.15835   
     length 3.65819  
     axis 0 0 0   XYZ 
    dof ry rz
    limits (-10.0 20.0)
           (-20.0 0.0)
  end
  begin
     id 25 
     name rhumerus
     direction -1 -4.48965e-011 -4.02296e-027  
     length 5.44729   
     axis 180 30 90   XYZ
    dof rx ry rz
    limits (-90.0 60.0)
           (-90.0 90.0)
           (-90.0 90.0)
  end
  begin
     id 26 
     name rradius
     direction -1 -4.48957e-011 -8.81087e-027   
     length 3.08821   
     axis 180 30 90   XYZ
    dof rx
    limits (-10.0 170.0)
  end
  begin
     id 27 
     name rwrist
     direction -1 -4.49015e-011 -1.24047e-026   
     length 1.5441   
     axis 9.05591e-015 -90 -90   XYZ
    dof ry
    limits (-180.0 0.0)
  end
  begin
     id 28
     name rhand
     direction -1 -4.4891e-011 -2.48094e-026   
     length 0.821049   
     axis 1.58305e-014 -90 -90   XYZ
    dof rx rz
    limits (-90.0 90.0)
           (-45.0 45.0)
  end
  begin
     id 29
     name rfingers
     direction -1 -4.48985e-011 -4.96187e-026   
     length 0.661951   
     axis 3.1661e-014 -90 -90   XYZ
    dof rx
    limits (0.0 90.0)
  end
  begin
     id 30
     name rthumb
     direction -0.707107 -6.34906e-011 0.707107   
     length 0.950433   
     axis -90 -45 -2.85299e-015   XYZ
    dof rx rz
    limits (-45.0 45.0)
           (-45.0 45.0)
  end
:hierarchy
  begin
    root lhipjoint rhipjoint lowerback
    lhipjoint lfemur
    lfemur ltibia
    ltibia lfoot
    lfoot ltoes
    rhipjoint rfemur
    rfemur rtibia
    rtibia rfoot
    rfoot rtoes
    lowerback upperback
    upperback thorax
    thorax lowerneck lclavicle rclavicle
    lowerneck upperneck
    upperneck head
    lclavicle lhumerus
    lhumerus lradius
    lradius lwrist
    lwrist lhand lthumb
    lhand lfingers
    rclavicle rhumerus
    rhumerus rradius
    rradius rwrist
    rwrist rhand rthumb
    rhand rfingers
  end

#!OML:ASF F:\VICON\USERDATA\INSTALL\rory3\rory3.ASF
:FULLY-SPECIFIED
:DEGREES
2512
root 3.3686 17.7073 0.177132 713.385 89.5502 714.89
lowerback 7.27861 -0.130758 2.0498
upperback 0.474945 -0.0206449 -0.79001
thorax -3.59245 -0.042082 -1.96788
lowerneck -2.66833 -4.99401 -4.8583
upperneck -1.49434 -6.48544 8.18692
head 0.458677 -3.1796 3.38229
rclavicle 1.61513e-016 -5.1684e-015
rhumerus -34.3426 -11.6544 -77.1265
rradius 23.9286
rwrist 21.9623
rhand -7.0257 11.3793
rfingers 7.12502
rthumb 18.8461 -17.7277
lclavicle 1.61513e-016 -5.1684e-015
lhumerus -31.6015 -6.16745 85.4123
lradius 22.721
lwrist 30.5392
lhand -9.55945 8.0539
lfingers 7.12502
lthumb 16.4079 37.3799
rfemur 1.80883 0.968797 18.8131
rtibia 15.0322
rfoot -18.6316 -7.07711
rtoes -6.90547
lfemur 3.5224 0.788315 -16.3618
ltibia 7.0687
lfoot -9.35766 -0.0217595
ltoes -4.33101
2513
root 3.36975 17.7091 0.178868 704.416 89.563 705.896
lowerback 7.27875 -0.140343 2.11121
upperback 0.451862 -0.0283587 -0.782844
thorax -3.61689 -0.0475251 -1.9943
lowerneck -2.6512 -4.99588 -4.81826
upperneck -1.46644 -6.49142 8.14427
head 0.461735 -3.18317 3.36008
rclavicle 1.93194e-015 -1.98785e-015
rhumerus -34.5996 -11.8367 -77.2191
rradius 23.9788
rwrist 22.0116
rhand -7.05032 11.5099
rfingers 7.12502
rthumb 18.8224 -17.5995
lclavicle 1.93194e-015 -1.98785e-015
lhumerus -31.8707 -5.59826 85.3129
lradius 22.5953
lwrist 30.7396
lhand -9.53951 7.98593
lfingers 7.12502
lthumb 16.4271 37.3104
rfemur 1.81895 1.05027 18.9031
rtibia 14.9923
rfoot -18.7116 -7.12088
rtoes -6.668
lfemur 3.4467 0.763356 -16.2781
ltibia 7.14075
lfoot -9.39267 -0.0410387
ltoes -4.4174
2514
root 3.36938 17.7072 0.181108 694.753 89.5624 696.198
lowerback 7.27354 -0.152164 2.15508
upperback 0.435459 -0.0399699 -0.760148
thorax -3.63158 -0.0543077 -1.99431
lowerneck -2.68266 -4.999 -4.84402
upperneck -1.39961 -6.49814 8.15487
head 0.490488 -3.18519 3.36663
rclavicle 7.57867e-016 3.97569e-015
rhumerus -34.8359 -12.0861 -77.2634
rradius 24.0884
rwrist 22.0667
rhand -6.90331 11.5033
rfingers 7.12502
rthumb 18.9638 -17.5923
lclavicle 7.57867e-016 3.97569e-015
lhumerus -32.0835 -4.91947 85.1915
lradius 22.4628
lwrist 30.7681
lhand -9.50751 7.94437
lfingers 7.12502
lthumb 16.4579 37.2663
rfemur 1.82523 1.05066 19.0041
rtibia 14.9288
rfoot -18.7067 -7.19427
rtoes -8.06172
lfemur 3.32354 0.739812 -16.1932
ltibia 7.28354
lfoot -9.4801 -0.0318856
ltoes -4.53666
2515
root 3.36937 17.7076 0.181407 694.503 89.5608 695.949
lowerback 7.30307 -0.156535 2.14938
upperback 0.425579 -0.045607 -0.759255
thorax -3.65866 -0.0574644 -1.9897
lowerneck -2.69075 -4.99208 -4.84552
upperneck -1.35444 -6.49157 8.12856
head 0.504846 -3.18161 3.35727
rclavicle 4.09993e-016 -5.76476e-015
rhumerus -35.0666 -12.2895 -77.3213
rradius 24.2041
rwrist 22.0017
rhand -6.70415 11.4644
rfingers 7.12502
rthumb 19.1553 -17.6122
lclavicle 4.09993e-016 -5.76476e-015
lhumerus -32.335 -4.48718 85.1943
lradius 22.3528
lwrist 30.9964
lhand -9.65762 7.65099
lfingers 7.12502
lthumb 16.3133 36.9848
rfemur 1.87691 1.06079 19.0071
rtibia 14.8323
rfoot -18.6799 -7.17448
rtoes -8.52492
lfemur 3.17117 0.740645 -16.1936
ltibia 7.57585
lfoot -9.63301 -0.0316504
ltoes -4.81093
2516
root 3.37159 17.7032 0.179992 693.433 89.5008 694.914
lowerback 7.33286 -0.133239 2.1985
upperback 0.42672 -0.00933805 -0.746056
thorax -3.67237 -0.0402967 -2.00752
lowerneck -2.70781 -4.99134 -4.85471
upperneck -1.28044 -6.4947 8.08106
head 0.530082 -3.18266 3.34122
rclavicle -5.40446e-016 7.15625e-015
rhumerus -35.2943 -12.3021 -77.44
rradius 24.2973
rwrist 21.6317
rhand -6.77144 11.4419
rfingers 7.12502
rthumb 19.0906 -17.6412
lclavicle -5.40446e-016 7.15625e-015
lhumerus -32.6323 -4.21726 85.2704
lradius 22.4041
lwrist 31.2225
lhand -9.61565 7.61318
lfingers 7.12502
lthumb 16.3537 36.9437
rfemur 1.94285 0.96362 19.0351
rtibia 14.7543
rfoot -18.5185 -7.17664
rtoes -9.01959
lfemur 3.10203 0.788617 -16.1628
ltibia 7.80282
lfoot -9.72018 -0.0547143
ltoes -4.91858
2517
root 3.37351 17.7009 0.178522 688.816 89.4439 690.329
lowerback 7.34225 -0.125549 2.28296
upperback 0.444677 0.00885364 -0.729433
thorax -3.65813 -0.0320589 -2.03974
lowerneck -2.70693 -4.97366 -4.86296
upperneck -1.26032 -6.47227 8.05361
head 0.533963 -3.17159 3.33375
rclavicle -1.64619e-015 3.77691e-015
rhumerus -35.4706 -12.3103 -77.5793
rradius 24.393
rwrist 21.2195
rhand -6.93368 11.2966
rfingers 7.12502
rthumb 18.9346 -17.8018
lclavicle -1.64619e-015 3.77691e-015
lhumerus -32.846 -3.83468 85.2501
lradius 22.486
lwrist 31.197
lhand -9.4273 7.83368
lfingers 7.12502
lthumb 16.5351 37.1492
rfemur 1.98379 0.905405 19.0913
rtibia 14.7142
rfoot -18.4476 -7.12277
rtoes -8.22561
lfemur 3.07302 0.817311 -16.0993
ltibia 7.94743
lfoot -9.76649 -0.0672035
ltoes -5.21869
2518
root 3.37461 17.7024 0.17898 691.731 89.463 693.269
lowerback 7.37807 -0.129505 2.23815
upperback 0.441851 0.000455249 -0.737737
thorax -3.68155 -0.0358499 -2.02236
lowerneck -2.67327 -4.96019 -4.84359
upperneck -1.25089 -6.45658 8.02341
head 0.527992 -3.16473 3.32099
rclavicle 7.88927e-016 -2.28602e-015
rhumerus -35.6601 -12.4337 -77.6704
rradius 24.4857
rwrist 20.9421
rhand -7.00621 11.1733
rfingers 7.12502
rthumb 18.8649 -17.9319
lclavicle 7.88927e-016 -2.28602e-015
lhumerus -33.0776 -3.46902 85.2346
lradius 22.5914
lwrist 31.1452
lhand -9.37523 7.98972
lfingers 7.12502
lthumb 16.5852 37.301
rfemur 2.01118 0.927266 19.0526
rtibia 14.7192
rfoot -18.4535 -7.13088
rtoes -7.5871
lfemur 3.10788 0.811461 -16.1309
ltibia 7.95245
lfoot -9.80853 -0.10916
ltoes -4.70516
2519
root 3.37437 17.7007 0.179455 694.56 89.4822 696.099
lowerback 7.40658 -0.132553 2.2136
upperback 0.417342 -0.00590947 -0.758658
thorax -3.72327 -0.0396442 -2.02971
lowerneck -2.63424 -4.95583 -4.83012
upperneck -1.20062 -6.45553 8.0181
head 0.536409 -3.16477 3.31708
rclavicle 4.22417e-016 5.26779e-015
rhumerus -35.8479 -12.6032 -77.7466
rradius 24.4769
rwrist 20.8091
rhand -7.17249 11.2557
rfingers 7.12502
rthumb 18.7049 -17.865
lclavicle 4.22417e-016 5.26779e-015
lhumerus -33.3638 -3.29237 85.2833
lradius 22.711
lwrist 31.2775
lhand -9.34764 7.8487
lfingers 7.12502
lthumb 16.6118 37.1578
rfemur 1.97707 0.915808 19.0258
rtibia 14.7841
rfoot -18.4729 -7.15657
rtoes -7.75949
lfemur 3.22702 0.805958 -16.1626
ltibia 7.73438
lfoot -9.75495 -0.0710822
ltoes -4.62155
2520
root 3.37585 17.7053 0.178977 697.229 89.5101 698.769
lowerback 7.40129 -0.139658 2.17554
upperback 0.418349 -0.0186158 -0.757423
thorax -3.71988 -0.0452464 -2.00565
lowerneck -2.63582 -4.94891 -4.87334
upperneck -1.16862 -6.44729 8.03168
head 0.548537 -3.16027 3.32964
rclavicle -6.21202e-016 2.98177e-015
rhumerus -35.9631 -12.7149 -77.7947
rradius 24.4913
rwrist 20.6716
rhand -7.22967 11.3252
rfingers 7.12502
rthumb 18.6499 -17.8008
lclavicle -6.21202e-016 2.98177e-015
lhumerus -33.6012 -3.12334 85.3567
lradius 22.8906
lwrist 31.3879
lhand -9.30442 7.67294
lfingers 7.12502
lthumb 16.6534 36.9785
rfemur 1.95322 0.987878 18.9797
rtibia 14.8494
rfoot -18.5996 -7.11627
rtoes -6.74068
lfemur 3.3324 0.790206 -16.2019
ltibia 7.53833
lfoot -9.64098 -0.0601462
ltoes -4.28325
2521
root 3.37827 17.7107 0.178753 701.649 89.5046 703.188
lowerback 7.36671 -0.129561 2.11664
upperback 0.436016 -0.0108922 -0.761783
thorax -3.68173 -0.0397395 -1.97764
lowerneck -2.67634 -4.93878 -4.87239
upperneck -1.11649 -6.4354 8.03829
head 0.571717 -3.15295 3.33033
rclavicle 7.3923e-016 -6.75868e-015
rhumerus -36.0435 -12.7771 -77.9073
rradius 24.5585
rwrist 20.5291
rhand -7.26269 11.2032
rfingers 7.12502
rthumb 18.6182 -17.9258
lclavicle 7.3923e-016 -6.75868e-015
lhumerus -33.7792 -2.987 85.4132
lradius 23.0899
lwrist 31.292
lhand -9.33192 7.69502
lfingers 7.12502
lthumb 16.6269 37.0028
rfemur 1.96146 1.07824 18.9338
rtibia 14.8551
rfoot -18.6883 -7.09905
rtoes -6.08933
lfemur 3.34493 0.809241 -16.248
ltibia 7.54174
lfoot -9.61647 -0.0323339
ltoes -4.52029
